<?xml version="1.0" encoding="UTF-8"?>
<svg xmlns="http://www.w3.org/2000/svg" viewBox="-20 -10 230 250">
  <rect x="-50" y="-50" width="300" height="300" fill="#8993a4" rx="40"/>
  <g fill="#ffffff">
    <path d="M104.64,160.06L55.27,34.49c-3.85-9.78-13.29-16.22-23.8-16.22l65.62,162.45,7.55-20.65Z"/>
    <path d="M123.32,109.54L86.95,17.04C83.11,7.26,73.33,0,62.82,0l52.47,129.89,8.03-20.35Z"/>
    <path d="M74.9,227.71L0,43.99h0c11.61,0,22.05,7.09,26.34,17.88l57.79,145.65L159.79,18.27c1.04-2.44,3.13-7.47,10.28-12.14C177.26,1.44,185.05-.03,187.7,0c-30.93,75.63-63.53,152.08-94.47,227.71-1.52,3.73-5.14,6.17-9.17,6.17h0c-4.02,0-7.65-2.44-9.17-6.16Z"/>
  </g>
</svg>
