<?xml version="1.0" encoding="UTF-8"?>
<svg id="Capa_1" data-name="Capa 1" xmlns="http://www.w3.org/2000/svg" viewBox="0 0 1125.03 233.88">
  <defs>
    <style>
      .cls-1 {
        fill: #848c9c;
      }
    </style>
  </defs>
  <g>
    <path class="cls-1" d="M104.64,160.06L55.27,34.49c-3.85-9.78-13.29-16.22-23.8-16.22l65.62,162.45,7.55-20.65Z"/>
    <path class="cls-1" d="M123.32,109.54L86.95,17.04C83.11,7.26,73.33,0,62.82,0l52.47,129.89,8.03-20.35Z"/>
    <path class="cls-1" d="M74.9,227.71L0,43.99h0c11.61,0,22.05,7.09,26.34,17.88l57.79,145.65L159.79,18.27c1.04-2.44,3.13-7.47,10.28-12.14C177.26,1.44,185.05-.03,187.7,0c-30.93,75.63-63.53,152.08-94.47,227.71-1.52,3.73-5.14,6.17-9.17,6.17h0c-4.02,0-7.65-2.44-9.17-6.16Z"/>
  </g>
  <g>
    <path class="cls-1" d="M224.59,0v141.41c0,7.92,6.42,14.35,14.35,14.35V14.35C238.94,6.43,232.51,0,224.59,0Z"/>
    <polygon class="cls-1" points="312.08 105.31 316.86 92.76 314.44 99.04 312.08 105.31"/>
    <path class="cls-1" d="M345.29,0c-3.99,0-7.56,2.44-9.03,6.14l-58.48,148.45c9.2,0,17.46-5.66,20.77-14.25l18.3-47.59,28.39-74.02,28.39,74.02,18.22,47.48c3.3,8.64,11.59,14.35,20.85,14.35L354.32,6.15C352.86,2.44,349.28,0,345.29,0Z"/>
    <path class="cls-1" d="M695.45,13.33v114.3L618.4,4.09c-1.61-2.54-3.11-4.08-6.13-4.08h-1.31c-4.88,0-8.82,3.95-8.82,8.82v145.83h2.22c7.36,0,11.11-5.97,11.11-13.33V24.04l77.04,123.37c1.62,2.54,4.42,4.08,7.44,4.08,4.88,0,8.83-3.95,8.83-8.83V0c-7.36,0-13.33,5.97-13.33,13.33Z"/>
    <path class="cls-1" d="M860.82,12.94h42.8v141.72c7.15,0,12.94-6.38,12.94-14.25V12.94h31.23c6.48,0,11.75-5.79,11.75-12.93h-86.97c-6.48,0-11.74,5.79-11.74,12.93Z"/>
    <path class="cls-1" d="M1119.2,47.16c-3.88-9.33-9.26-17.54-16.12-24.62-6.87-7.08-14.85-12.6-23.94-16.58C1070.04,1.99,1060.29,0,1049.87,0s-20.18,1.99-29.27,5.96c-9.09,3.97-17.07,9.5-23.93,16.58-6.87,7.08-12.24,15.28-16.13,24.62-3.88,9.34-5.82,19.39-5.82,30.17s1.94,20.76,5.82,30.13c3.88,9.36,9.26,17.59,16.13,24.66,6.87,7.08,14.84,12.6,23.93,16.58,9.1,3.98,18.85,5.96,29.27,5.96s20.17-1.99,29.27-5.96c9.09-3.97,17.07-9.5,23.94-16.58,6.87-7.08,12.24-15.3,16.12-24.66,3.88-9.36,5.83-19.41,5.83-30.13s-1.95-20.84-5.83-30.17ZM1105.61,102.44c-3.07,7.77-7.37,14.57-12.87,20.42-5.51,5.84-11.91,10.39-19.2,13.64-7.29,3.25-15.18,4.88-23.67,4.88s-16.39-1.63-23.72-4.88c-7.32-3.25-13.71-7.8-19.19-13.64-5.49-5.84-9.77-12.65-12.87-20.42-3.1-7.77-4.65-16.14-4.65-25.11s1.55-17.34,4.65-25.11c3.1-7.77,7.39-14.57,12.87-20.42,5.48-5.84,11.87-10.39,19.19-13.64,7.32-3.25,15.22-4.88,23.72-4.88s16.38,1.63,23.67,4.88c7.28,3.25,13.69,7.8,19.2,13.64,5.51,5.84,9.8,12.65,12.87,20.42,3.07,7.77,4.6,16.14,4.6,25.11s-1.53,17.34-4.6,25.11Z"/>
    <path class="cls-1" d="M748.13,12.94h42.8v141.72c7.15,0,12.94-6.38,12.94-14.25V12.94h31.23c6.48,0,11.74-5.79,11.74-12.93h-86.97c-6.48,0-11.74,5.79-11.74,12.93Z"/>
    <path class="cls-1" d="M542.09,13.33v114.3L465.04,4.09c-1.62-2.54-3.63-4.08-6.64-4.08h-.79c-4.88,0-8.82,3.95-8.82,8.82v145.83h2.22c7.36,0,11.11-5.97,11.11-13.33V24.04l77.04,123.37c1.62,2.54,4.42,4.08,7.44,4.08,4.88,0,8.83-3.95,8.83-8.83l.55-139.39V0c-7.36,0-13.88,5.97-13.88,13.33Z"/>
  </g>
</svg>