<?xml version="1.0" encoding="UTF-8"?>
<svg id="Capa_1" data-name="Capa 1" xmlns="http://www.w3.org/2000/svg" viewBox="0 0 692.67 229.52">
  <defs>
    <style>
      .cls-1 {
        fill: #4f5d6c;
      }
    </style>
  </defs>
  <g id="Shapes">
    <path class="cls-1" d="M690.54,112.9l-567.41,1s-.17,0-.49-.03c-9.36-.65-13.97-11.77-7.83-18.86.21-.24.33-.37.34-.37l41.13-41.17c.61-.61.61-1.61,0-2.23l-.4-.4c-.62-.62-1.61-.62-2.23,0l-41.12,41.17s-.03.03-.09.08c-7.02,6.39-18.41,1.84-19.05-7.63-.07-1.04-.11-2.12-.11-3.24l-.06-79.65c0-.87-.71-1.58-1.58-1.58h-.56c-.87,0-1.58.71-1.58,1.58l.06,79.65c0,1.34-.05,2.63-.15,3.86-.74,9.04-11.34,13.43-18.25,7.55-.94-.8-1.88-1.67-2.83-2.62L29.2,50.85c-.62-.62-1.61-.62-2.23,0l-.4.4c-.61.62-.61,1.61,0,2.23l39.14,39.18c.79.79,1.53,1.58,2.22,2.37,6.25,7.16,1.41,18.43-8.08,18.88-.08,0-.12,0-.12,0H1.58c-.87,0-1.58.71-1.58,1.58v.56c0,.87.71,1.58,1.58,1.58h58.16s.17,0,.48.03c9.36.65,13.97,11.78,7.82,18.87-.21.24-.33.37-.33.37l-41.13,41.17c-.61.61-.61,1.61,0,2.23l.4.4c.62.62,1.61.62,2.23,0l41.13-41.17s.04-.03.1-.09c7.02-6.38,18.39-1.84,19.03,7.62.07,1.05.11,2.14.11,3.26l-.06,77.65c0,.87.71,1.58,1.58,1.58h.56c.87,0,1.58-.71,1.58-1.58l.06-77.65c0-1.35.05-2.64.15-3.88.74-9.03,11.33-13.42,18.24-7.55.94.8,1.89,1.67,2.84,2.62l39.14,39.18c.62.62,1.61.62,2.23,0l.4-.4c.61-.62.61-1.61,0-2.23l-39.14-39.18c-.79-.79-1.53-1.58-2.21-2.37-6.24-7.16-1.41-18.43,8.08-18.88.08,0,.12,0,.12,0l567.41-1c.87,0,1.57-.71,1.57-1.58v-.56c0-.87-.71-1.58-1.58-1.58Z"/>
  </g>
  <g>
    <path class="cls-1" d="M227.03,221.18h-51.21v-93.56h42.73c4.68,0,8.47,3.79,8.47,8.47h0s-41.85,0-41.85,0v33.63h31.99c4.68,0,8.47,3.79,8.47,8.47h0s-40.46,0-40.46,0v34.52h34.21c4.22,0,7.64,3.42,7.64,7.64v.83Z"/>
    <path class="cls-1" d="M294.54,195.39c0,7.76-2.76,14.27-8.28,19.53-5.52,5.27-12.16,7.9-19.91,7.9-8.34,0-15.22-2.55-20.61-7.65-5.4-5.1-8.14-11.82-8.22-20.17h0c4.84,0,9.11,3.05,10.82,7.57.93,2.46,2.3,4.62,4.1,6.46,3.46,3.54,8.09,5.31,13.91,5.31,5.23,0,9.67-1.79,13.34-5.37,3.67-3.58,5.5-7.99,5.5-13.21,0-5.65-1.85-9.9-5.56-12.77-3.71-2.86-8.81-5.27-15.3-7.21-3.88-1.18-7.06-2.29-9.55-3.35-2.49-1.05-4.97-2.49-7.46-4.3-2.49-1.81-4.32-4.13-5.5-6.95-1.18-2.82-1.77-6.17-1.77-10.05,0-7.25,2.55-13.25,7.65-18.02,5.1-4.76,11.32-7.14,18.65-7.14s13.38,2.42,18.4,7.27c5.01,4.85,7.52,10.89,7.52,18.14h-9.36c0-4.55-1.62-8.51-4.87-11.88-3.25-3.37-7.14-5.06-11.7-5.06s-8.72,1.54-12.01,4.62c-3.29,3.08-4.93,6.98-4.93,11.7,0,1.77.21,3.35.63,4.74.42,1.39,1.16,2.64,2.21,3.73,1.05,1.1,1.98,2,2.78,2.72.8.72,2.13,1.45,3.98,2.21,1.85.76,3.18,1.29,3.98,1.58.8.3,2.32.76,4.55,1.39,2.23.63,3.6,1.03,4.11,1.2,15.25,4.64,22.88,13.66,22.88,27.06Z"/>
    <path class="cls-1" d="M342.21,136.09h-12.9v85.09h0c-5.17,0-9.36-4.19-9.36-9.36v-75.73h-21.49c0-4.68,3.79-8.47,8.47-8.47h43.75c0,4.68-3.79,8.47-8.47,8.47Z"/>
    <path class="cls-1" d="M357.33,127.62h14.45c10.45,0,18.12,1.18,23.01,3.54,5.23,2.53,9.31,6.15,12.26,10.87,2.95,4.72,4.43,9.99,4.43,15.8,0,7.84-2.66,14.41-7.97,19.72-5.31,5.31-11.93,8.22-19.85,8.72l26.43,34.9h0c-7.4,0-14.37-3.49-18.81-9.41l-16.34-21.81c-3.42-4.57-.44-11.1,5.25-11.54,2.97-.23,5.14-.56,6.51-.99,4.63-1.43,8.36-3.9,11.19-7.4,2.82-3.5,4.24-7.65,4.24-12.45,0-3.62-.93-7.1-2.78-10.43-1.86-3.33-4.34-5.84-7.46-7.52-4.38-2.36-10.45-3.54-18.21-3.54h-16.31"/>
    <path class="cls-1" d="M467.49,221.18h-42.73v-93.56h42.73c4.68,0,8.47,3.79,8.47,8.47h0s-41.85,0-41.85,0v33.63h40.46c0,4.68-3.79,8.47-8.47,8.47h-31.99v34.52h41.85c0,4.68-3.79,8.47-8.47,8.47Z"/>
    <path class="cls-1" d="M542.09,221.18h-48.05v-93.56h1.85c4.14,0,7.5,3.36,7.5,7.5v77.59h30.22c4.68,0,8.47,3.79,8.47,8.47h0Z"/>
    <path class="cls-1" d="M600.5,221.18h-48.05v-93.56h.69c4.79,0,8.67,3.88,8.67,8.67v76.42h30.22c4.68,0,8.47,3.79,8.47,8.47h0Z"/>
    <path class="cls-1" d="M692.67,221.18h0c-6.21,0-11.83-3.7-14.29-9.41l-9.48-22.07h-43.49l-9.78,22.55c-2.35,5.42-7.7,8.93-13.61,8.93h0l39.95-93.56h10.49l40.21,93.56ZM665.23,181.22l-17.95-42.99-18.33,42.99h36.29Z"/>
  </g>
  <g>
    <path class="cls-1" d="M185.2,62.87v28.4c0,5.18-4.2,9.38-9.38,9.38h0V6.84h26.11c10.82,0,18.89,1.82,24.21,5.45,7.77,5.32,11.66,12.85,11.66,22.56s-3.89,17.24-11.66,22.56c-5.32,3.63-13.4,5.45-24.21,5.45h-16.73M185.2,54.38h16.23c7.35,0,12.72-.8,16.1-2.41,7.27-3.46,10.9-9.17,10.9-17.11s-3.63-13.65-10.9-17.11c-3.38-1.6-8.75-2.41-16.1-2.41h-16.23v39.04"/>
    <path class="cls-1" d="M304.45,37.14c0,7.86-2.66,14.45-7.99,19.77-5.32,5.32-11.96,8.24-19.9,8.75l26.49,34.99h-1.28c-6.61,0-12.84-3.11-16.8-8.41l-25.52-34.06c10.48,0,17.2-.46,20.16-1.39,4.65-1.44,8.39-3.91,11.22-7.42,2.83-3.51,4.25-7.67,4.25-12.49,0-3.63-.93-7.12-2.79-10.46-1.86-3.34-4.35-5.85-7.48-7.54-4.4-2.37-10.48-3.55-18.25-3.55h-25.73V6.84h23.83c10.48,0,18.17,1.18,23.07,3.55,5.24,2.54,9.34,6.17,12.3,10.9,2.96,4.73,4.44,10.01,4.44,15.85Z"/>
    <path class="cls-1" d="M323.21,100.65h0c-2.59,0-4.69-2.1-4.69-4.69V11.53c0-2.59,2.1-4.69,4.69-4.69h0c2.59,0,4.69,2.1,4.69,4.69v84.42c0,2.59-2.1,4.69-4.69,4.69Z"/>
    <path class="cls-1" d="M444.39,100.65h0c-5.18,0-9.38-4.2-9.38-9.38V17.11s-.25,0-.25,0l-33.48,79.66c-.99,2.35-3.29,3.88-5.84,3.88h0c-2.29,0-4.35-1.38-5.23-3.49l-33.4-80.05h-.25v74.16c0,5.18-4.2,9.38-9.38,9.38h0V6.84h14.45l34.1,79.86L429.94,6.84h14.45v93.8Z"/>
    <path class="cls-1" d="M505.74,100.65h-42.85V6.84h42.85c4.69,0,8.49,3.8,8.49,8.49h0s-41.96,0-41.96,0v33.72h40.56c0,4.69-3.8,8.49-8.49,8.49h-32.07v34.61h41.96c0,4.69-3.8,8.49-8.49,8.49Z"/>
    <path class="cls-1" d="M594.48,37.14c0,7.86-2.66,14.45-7.99,19.77-5.32,5.32-11.96,8.24-19.9,8.75l26.49,34.99h0c-7.42,0-14.41-3.5-18.86-9.43l-24.75-33.03c10.48,0,17.2-.46,20.16-1.39,4.65-1.44,8.39-3.91,11.22-7.42,2.83-3.51,4.25-7.67,4.25-12.49,0-3.63-.93-7.12-2.79-10.46-1.86-3.34-4.35-5.85-7.48-7.54-4.4-2.37-10.48-3.55-18.25-3.55h-16.35v85.31h-9.38V6.84h23.83c10.48,0,18.17,1.18,23.07,3.55,5.24,2.54,9.34,6.17,12.3,10.9,2.96,4.73,4.44,10.01,4.44,15.85Z"/>
    <path class="cls-1" d="M691.32,100.65h0c-6.23,0-11.86-3.71-14.32-9.43l-9.51-22.13h-43.61l-9.81,22.61c-2.36,5.44-7.72,8.95-13.64,8.95h0l40.06-93.8h10.52l40.31,93.8ZM663.82,60.59l-18-43.1-18.38,43.1h36.38Z"/>
  </g>
</svg>